<?xml version="1.0" encoding="iso-8859-1"?>
<!-- Uploaded to: SVG Repo, www.svgrepo.com, Generator: SVG Repo Mixer Tools -->
<svg version="1.1" id="Layer_1" xmlns="http://www.w3.org/2000/svg" xmlns:xlink="http://www.w3.org/1999/xlink" 
	 viewBox="0 0 512 512" xml:space="preserve">
<g>
	<rect x="0.016" y="58.488" style="fill:#666666;" width="395.36" height="47.912"/>
	<rect x="64.728" style="fill:#666666;" width="265.92" height="58.488"/>
</g>
<polygon style="fill:#E2E2E2;" points="360.848,106.136 32.712,106.136 75.696,512 319.68,512 "/>
<polygon style="fill:#E21B1B;" points="41.088,184.952 352.472,184.952 326.248,431.68 67.32,431.68 "/>
<g>
	<rect x="143.024" y="281.04" style="fill:#FFFFFF;" width="109.328" height="8"/>
	<rect x="111.024" y="321.6" style="fill:#FFFFFF;" width="173.328" height="8"/>
</g>
<circle cx="376.656" cy="376.64" r="135.328"/>
<path style="fill:#FFFFFF;" d="M370.176,450.92v-18.184c-10.672-0.12-21.136-2.96-30.4-8.248l5.064-17.6
	c8.864,5.248,18.944,8.096,29.248,8.248c11.816,0,19.872-5.816,19.872-14.816c0-8.44-6.56-13.872-20.44-18.936
	c-19.688-7.128-32.44-16.128-32.44-33.6c0-16.128,11.248-28.496,30.184-31.872v-18.4h15.376v17.44
	c8.976,0.096,17.816,2.216,25.872,6.184l-5.016,17.264c-7.864-4.136-16.608-6.328-25.496-6.4c-13.128,0-17.816,6.752-17.816,13.128
	c0,7.688,6.752,12,22.688,18.4c21,7.872,30.4,18,30.4,34.688c0,15.936-11.064,30-31.688,33.376v19.312L370.176,450.92z"/>
</svg>