<svg xmlns="http://www.w3.org/2000/svg" viewBox="0 0 24 24">
  <path fill="#0F1689" d="M12 0C5.374 0 0 5.373 0 12c0 6.628 5.374 12 12 12 6.628 0 12-5.372 12-12C24 5.373 18.628 0 12 0zm-.268 4.478a7.299 7.299 0 0 1 4.156 1.292 7.298 7.298 0 0 1 2.645 3.27h-3.44a3.985 3.985 0 0 0-1.386-1.292 3.985 3.985 0 0 0-1.975-.523 3.985 3.985 0 0 0-1.975.523 3.985 3.985 0 0 0-1.386 1.292H5.467a7.298 7.298 0 0 1 2.645-3.27 7.299 7.299 0 0 1 4.156-1.292h-.536zm-6.26 5.847h3.44a3.985 3.985 0 0 0-.209 1.293c0 .453.074.887.209 1.292H5.472a7.26 7.26 0 0 1-.262-1.292 7.26 7.26 0 0 1 .262-1.293zm9.7 0h3.44c.126.415.2.849.209 1.293a7.26 7.26 0 0 1-.262 1.292h-3.44a3.985 3.985 0 0 0 .209-1.292 3.985 3.985 0 0 0-.156-1.293zm-9.7 3.878h3.44a3.985 3.985 0 0 0 1.386 1.292 3.985 3.985 0 0 0 1.975.523 3.985 3.985 0 0 0 1.975-.523 3.985 3.985 0 0 0 1.386-1.292h3.44a7.298 7.298 0 0 1-2.645 3.27 7.299 7.299 0 0 1-4.156 1.292 7.299 7.299 0 0 1-4.156-1.292 7.298 7.298 0 0 1-2.645-3.27z"/>
</svg>